# xmcd
#
# Track frame offsets:
#	150
#	15730
#	44100
#
# Disc length: 962 seconds
#
# Revision: 2
# Processed by: cddbd v1.5.2PL0 Copyright (c) Steve Scherf et al.
# Submitted via: EZCDAudioConverter 1.3.4.1
#
DISCID=2203c003
DTITLE=Jason Donovan - Another Night
DYEAR=1990
DGENRE=90's
TTITLE0=Another Night
TTITLE1=Another Night (Sweet Dreams Mix)
TTITLE2=Another Night (Instrumental)
EXTD=
EXTT0=
EXTT1=
EXTT2=
PLAYORDER=
